# WaveFront *.obj file (generated by Autodesk ATF)

mtllib Blitz.mtl

g Volumenkörper1

v -16.175840 21.242173 0.000000
v -16.175840 21.242173 10.000000
v -10.162545 43.144484 0.000000
v -10.162545 43.144484 10.000000
v -10.162545 111.474800 0.000000
v -10.162545 111.474800 10.000000
v -4.149250 19.708170 0.000000
v -4.149250 19.708170 10.000000
v -0.351055 -3.060257 0.000000
v -0.351055 -3.060257 10.000000
v -0.351055 49.486027 0.000000
v -0.351055 49.486027 10.000000
v -0.351055 102.437897 0.000000
v -0.351055 102.437897 10.000000
v 3.505060 64.433861 0.000000
v 3.505060 64.433861 10.000000
v 7.361175 110.811176 0.000000
v 7.361175 110.811176 10.000000
v 7.871296 18.174937 0.000000
v 7.871296 18.174937 10.000000
v 14.200766 76.046338 0.000000
v 14.200766 76.046338 10.000000
v 18.170201 17.048533 0.000000
v 18.170201 17.048533 10.000000
vt 0.000000 0.000000 0.000000
vt 6.833031 0.000000 0.000000
vt 6.833031 1.000000 0.000000
vt 0.000000 1.000000 0.000000
vt 0.000000 0.000000 0.000000
vt 1.333907 0.000000 0.000000
vt 1.333907 1.000000 0.000000
vt 0.000000 1.000000 0.000000
vt 0.000000 0.000000 0.000000
vt 1.138377 0.000000 0.000000
vt 1.138377 1.000000 0.000000
vt 0.000000 1.000000 0.000000
vt 0.000000 0.000000 0.000000
vt 4.653735 0.000000 0.000000
vt 4.653735 1.000000 0.000000
vt 0.000000 1.000000 0.000000
vt 0.000000 0.000000 0.000000
vt 1.578758 0.000000 0.000000
vt 1.578758 1.000000 0.000000
vt 0.000000 1.000000 0.000000
vt 0.000000 0.000000 0.000000
vt 5.821651 0.000000 0.000000
vt 5.821651 1.000000 0.000000
vt 0.000000 1.000000 0.000000
vt 0.000000 0.000000 0.000000
vt 1.036032 0.000000 0.000000
vt 1.036032 1.000000 0.000000
vt 0.000000 1.000000 0.000000
vt 0.000000 0.000000 0.000000
vt 2.733862 0.000000 0.000000
vt 2.733862 1.000000 0.000000
vt 0.000000 1.000000 0.000000
vt 0.000000 0.000000 0.000000
vt 2.900055 0.000000 0.000000
vt 2.900055 1.000000 0.000000
vt 0.000000 1.000000 0.000000
vt 0.000000 0.000000 0.000000
vt 1.212403 0.000000 0.000000
vt 1.212403 1.000000 0.000000
vt 0.000000 1.000000 0.000000
vt 0.000000 0.000000 0.000000
vt 3.001911 0.000000 0.000000
vt 3.001911 1.000000 0.000000
vt 0.000000 1.000000 0.000000
vt 0.000000 0.000000 0.000000
vt 1.168249 0.000000 0.000000
vt 1.168249 1.000000 0.000000
vt 0.000000 1.000000 0.000000
vt -1.115973 -1.106279 0.000000
vt -0.134824 -0.472124 0.000000
vt -0.514643 -3.449910 0.000000
vt -1.717302 -3.296510 0.000000
vt -0.134824 -5.726753 0.000000
vt 1.717302 -3.715874 0.000000
vt 0.687412 -3.603233 0.000000
vt 1.320359 2.183907 0.000000
vt 0.250788 1.022659 0.000000
vt 0.636399 5.660390 0.000000
vt -0.134824 4.823063 0.000000
vt -1.115973 5.726753 0.000000
vt 0.134824 -0.472124 0.000000
vt 1.115973 -1.106279 0.000000
vt 1.115973 5.726753 0.000000
vt 0.134824 4.823063 0.000000
vt -0.636399 5.660390 0.000000
vt -0.250788 1.022659 0.000000
vt -1.320359 2.183907 0.000000
vt -0.687412 -3.603233 0.000000
vt -1.717302 -3.715874 0.000000
vt 0.134824 -5.726753 0.000000
vt 1.717302 -3.296510 0.000000
vt 0.514643 -3.449910 0.000000
vn -0.100000 0.000000 0.000000
vn -0.100000 0.000000 0.000000
vn -0.100000 0.000000 0.000000
vn -0.100000 0.000000 0.000000
vn 0.067748 0.073555 0.000000
vn 0.067748 0.073555 0.000000
vn 0.067748 0.073555 0.000000
vn 0.067748 0.073555 0.000000
vn -0.073555 0.067748 0.000000
vn -0.073555 0.067748 0.000000
vn -0.073555 0.067748 0.000000
vn -0.073555 0.067748 0.000000
vn 0.099656 -0.008286 0.000000
vn 0.099656 -0.008286 0.000000
vn 0.099656 -0.008286 0.000000
vn 0.099656 -0.008286 0.000000
vn -0.073555 0.067748 0.000000
vn -0.073555 0.067748 0.000000
vn -0.073555 0.067748 0.000000
vn -0.073555 0.067748 0.000000
vn 0.099407 -0.010872 0.000000
vn 0.099407 -0.010872 0.000000
vn 0.099407 -0.010872 0.000000
vn 0.099407 -0.010872 0.000000
vn 0.010872 0.099407 0.000000
vn 0.010872 0.099407 0.000000
vn 0.010872 0.099407 0.000000
vn 0.010872 0.099407 0.000000
vn 0.073555 -0.067748 0.000000
vn 0.073555 -0.067748 0.000000
vn 0.073555 -0.067748 0.000000
vn 0.073555 -0.067748 0.000000
vn -0.083800 -0.054567 0.000000
vn -0.083800 -0.054567 0.000000
vn -0.083800 -0.054567 0.000000
vn -0.083800 -0.054567 0.000000
vn 0.012653 0.099196 0.000000
vn 0.012653 0.099196 0.000000
vn 0.012653 0.099196 0.000000
vn 0.012653 0.099196 0.000000
vn -0.099196 0.012653 0.000000
vn -0.099196 0.012653 0.000000
vn -0.099196 0.012653 0.000000
vn -0.099196 0.012653 0.000000
vn 0.054282 -0.083985 0.000000
vn 0.054282 -0.083985 0.000000
vn 0.054282 -0.083985 0.000000
vn 0.054282 -0.083985 0.000000
vn 0.000000 0.000000 0.100000
vn 0.000000 0.000000 0.100000
vn 0.000000 0.000000 0.100000
vn 0.000000 0.000000 0.100000
vn 0.000000 0.000000 0.100000
vn 0.000000 0.000000 0.100000
vn 0.000000 0.000000 0.100000
vn 0.000000 0.000000 0.100000
vn 0.000000 0.000000 0.100000
vn 0.000000 0.000000 0.100000
vn 0.000000 0.000000 0.100000
vn 0.000000 0.000000 0.100000
vn 0.000000 0.000000 -0.100000
vn 0.000000 0.000000 -0.100000
vn 0.000000 0.000000 -0.100000
vn 0.000000 0.000000 -0.100000
vn 0.000000 0.000000 -0.100000
vn 0.000000 0.000000 -0.100000
vn 0.000000 0.000000 -0.100000
vn 0.000000 0.000000 -0.100000
vn 0.000000 0.000000 -0.100000
vn 0.000000 0.000000 -0.100000
vn 0.000000 0.000000 -0.100000
vn 0.000000 0.000000 -0.100000
usemtl 191,191,191
f 5/1/1 3/2/2 6/4/4
f 6/4/4 3/2/2 4/3/3
f 13/5/5 5/6/6 14/8/8
f 14/8/8 5/6/6 6/7/7
f 17/9/9 13/10/10 18/12/12
f 18/12/12 13/10/10 14/11/11
f 15/13/13 17/14/14 16/16/16
f 16/16/16 17/14/14 18/15/15
f 21/17/17 15/18/18 22/20/20
f 22/20/20 15/18/18 16/19/19
f 19/21/21 21/22/22 20/24/24
f 20/24/24 21/22/22 22/23/23
f 23/25/25 19/26/26 24/28/28
f 24/28/28 19/26/26 20/27/27
f 9/29/29 23/30/30 10/32/32
f 10/32/32 23/30/30 24/31/31
f 1/33/33 9/34/34 2/36/36
f 2/36/36 9/34/34 10/35/35
f 7/37/37 1/38/38 8/40/40
f 8/40/40 1/38/38 2/39/39
f 11/41/41 7/42/42 12/44/44
f 12/44/44 7/42/42 8/43/43
f 3/45/45 11/46/46 4/48/48
f 4/48/48 11/46/46 12/47/47
f 6/60/60 4/49/49 14/59/59
f 14/59/59 4/49/49 12/50/50
f 14/59/59 12/50/50 16/57/57
f 16/57/57 12/50/50 20/55/55
f 16/57/57 20/55/55 22/56/56
f 12/50/50 8/51/51 20/55/55
f 20/55/55 8/51/51 10/53/53
f 20/55/55 10/53/53 24/54/54
f 8/51/51 2/52/52 10/53/53
f 16/57/57 18/58/58 14/59/59
f 3/62/62 13/64/64 11/61/61
f 11/61/61 13/64/64 15/66/66
f 11/61/61 15/66/66 19/68/68
f 19/68/68 15/66/66 21/67/67
f 3/62/62 5/63/63 13/64/64
f 13/64/64 17/65/65 15/66/66
f 23/69/69 9/70/70 19/68/68
f 19/68/68 9/70/70 7/72/72
f 19/68/68 7/72/72 11/61/61
f 9/70/70 1/71/71 7/72/72

# 24 vertices
# 72 texture params
# 72 normals
# 44 facets

# 1 groups
